<?xml version="1.0" encoding="utf-8"?>
<!-- Generator: Adobe Illustrator 27.1.0, SVG Export Plug-In . SVG Version: 6.00 Build 0)  -->
<svg version="1.1" id="Layer_1" xmlns="http://www.w3.org/2000/svg" xmlns:xlink="http://www.w3.org/1999/xlink" x="0px" y="0px"
	 viewBox="0 0 347.32 347.32" style="enable-background:new 0 0 347.32 347.32;" xml:space="preserve">
<style type="text/css">
	.st0{fill:#195658;}
	.st1{fill:none;stroke:#195658;stroke-miterlimit:10;}
	.st2{fill:#E9E9E9;}
	.st3{fill:#9FD44E;}
	.st4{fill:none;stroke:#8F9194;stroke-width:0.25;stroke-miterlimit:10;}
	.st5{fill:none;stroke:#E91D24;stroke-width:0.5;stroke-miterlimit:10;}
	.st6{fill:url(#SVGID_1_);}
	.st7{fill:#161616;}
	.st8{fill:#E91D24;}
	.st9{fill:none;}
	.st10{fill:none;stroke:#E91D24;stroke-width:0.5;stroke-miterlimit:10;stroke-dasharray:2;}
	.st11{opacity:0.2;}
	.st12{fill:url(#SVGID_00000138572461451817353320000014160515735479493553_);}
	.st13{fill:#FFFFFF;}
</style>
<linearGradient id="SVGID_1_" gradientUnits="userSpaceOnUse" x1="25.4318" y1="25.4318" x2="321.8861" y2="321.8861">
	<stop  offset="0" style="stop-color:#195658"/>
	<stop  offset="0.2703" style="stop-color:#1B5B5B"/>
	<stop  offset="0.5991" style="stop-color:#1F6A62"/>
	<stop  offset="0.957" style="stop-color:#26836F"/>
	<stop  offset="1" style="stop-color:#278671"/>
</linearGradient>
<path class="st6" d="M260.49,347.32H86.83C38.87,347.32,0,308.44,0,260.49V86.83C0,38.87,38.87,0,86.83,0h173.66
	c47.95,0,86.83,38.87,86.83,86.83v173.66C347.32,308.44,308.44,347.32,260.49,347.32z"/>
<g>
	<g>
		<path class="st13" d="M181.07,164.18c5.34-11.78,3.36-26.1-5.94-36.01l21.72-21.72c5.8-5.8,13.51-9,21.71-9
			c7.85,0,15.26,2.93,20.96,8.27L181.07,164.18z"/>
		<path class="st13" d="M158.62,186.62c0.74-1.63,1.35-3.33,1.82-5.07c3-11.23-0.22-23.33-8.4-31.58c-0.03-0.03-0.06-0.07-0.09-0.1
			c-0.03-0.03-0.06-0.06-0.1-0.09l-44.06-44.06c5.71-5.34,13.11-8.27,20.96-8.27c8.2,0,15.91,3.2,21.71,9l0.31,0.31h0l22.15,22.15
			c11.97,11.97,11.97,31.45,0,43.43L158.62,186.62z"/>
		<path class="st13" d="M128.75,203.77c-7.85,0-15.25-2.93-20.96-8.27l43.4-43.4c7.19,7.7,9.96,18.69,7.23,28.91
			c-1.36,5.1-4.04,9.78-7.76,13.57l-0.2,0.2C144.67,200.57,136.95,203.77,128.75,203.77z"/>
		<polygon class="st13" points="108.94,150.59 128.93,139.35 148.62,150.68 128.94,161.99 		"/>
	</g>
	<g>
		<path class="st13" d="M155.05,228.69c4.37,0.94,7.62,2.21,9.73,3.84s3.17,3.89,3.17,6.81c0,3.38-1.31,5.97-3.92,7.8
			c-2.61,1.82-6.06,2.73-10.34,2.73c-2.41,0-5.02-0.43-7.82-1.3c-2.8-0.86-5.13-1.9-6.99-3.1l2.78-5.82
			c3.66,2.47,7.72,3.7,12.17,3.68c1.76,0,3.24-0.31,4.46-0.93c1.21-0.62,1.82-1.49,1.82-2.61c0-0.97-0.55-1.79-1.65-2.46
			c-1.1-0.67-3-1.3-5.69-1.89c-4.28-0.93-7.5-2.23-9.66-3.89s-3.24-4.02-3.24-7.11c0-3.08,1.34-5.52,4.02-7.32
			c2.68-1.8,6.18-2.7,10.51-2.7c2.17,0,4.33,0.31,6.49,0.93c2.16,0.62,3.93,1.35,5.32,2.19l-2.09,6.23
			c-3.15-1.82-6.48-2.73-9.98-2.73c-2.14,0-3.76,0.33-4.86,0.97c-1.1,0.65-1.65,1.45-1.65,2.4c0,0.97,0.57,1.78,1.7,2.45
			C150.44,227.53,152.35,228.14,155.05,228.69z"/>
		<path class="st13" d="M185.36,243.61c1.7,0,3.08-0.23,4.16-0.7l0.63,6.17c-2.29,0.51-4.14,0.77-5.56,0.77
			c-3.1,0-5.58-0.85-7.44-2.56c-1.86-1.71-2.79-3.97-2.79-6.79v-9.51h-5.4v-5.89h5.49l1.45-7.08h5.3v7.08h8.9v5.89h-8.9v8.27
			C181.2,242.16,182.58,243.61,185.36,243.61z"/>
		<path class="st13" d="M213.93,237.14v-12.66H221v25.36h-3.84l-2.25-5.29h-0.14c-0.97,1.66-2.27,2.96-3.89,3.91
			c-1.62,0.94-3.4,1.41-5.33,1.41c-3.18,0-5.79-1.17-7.82-3.51c-2.03-2.34-3.04-5.33-3.04-8.98v-12.9h7.07v12.61
			c0,1.81,0.58,3.29,1.74,4.45c1.16,1.16,2.62,1.74,4.4,1.74c1.74,0,3.18-0.57,4.33-1.71C213.35,240.42,213.93,238.95,213.93,237.14
			z"/>
		<path class="st13" d="M236.42,224.44c3.23,0,5.92,1.26,8.09,3.79h0.14v-13.79h6.9v35.41h-3.79l-2.15-5.09h-0.14
			c-0.98,1.59-2.26,2.84-3.82,3.75c-1.57,0.91-3.29,1.37-5.18,1.37c-3.2,0-5.84-1.19-7.93-3.56c-2.09-2.38-3.13-5.42-3.13-9.13
			c0-3.71,1.04-6.75,3.11-9.13C230.59,225.67,233.22,224.47,236.42,224.44z M234.14,241.68c1.16,1.18,2.62,1.77,4.38,1.77
			c1.76,0,3.22-0.59,4.38-1.77c1.16-1.18,1.74-2.68,1.74-4.5c0-1.82-0.58-3.32-1.74-4.5c-1.16-1.18-2.62-1.77-4.38-1.77
			c-1.76,0-3.22,0.59-4.38,1.77c-1.16,1.18-1.74,2.68-1.74,4.5C232.39,239,232.98,240.5,234.14,241.68z"/>
		<polygon class="st13" points="87.01,214.44 78.07,214.44 78.07,214.44 70.16,228.38 70.01,228.38 62.15,214.44 53.16,214.44 
			66.16,236.6 66.16,249.87 73.87,249.87 73.87,249.87 73.87,236.92 		"/>
		<path class="st13" d="M98.62,224.92c-9.61-2.47-18.1,6.02-15.63,15.63c1.11,4.33,4.56,7.78,8.89,8.89
			c9.61,2.47,18.1-6.02,15.63-15.63C106.39,229.48,102.95,226.03,98.62,224.92z M97.64,243.13c-5.34,1.95-10.3-3-8.35-8.35
			c0.6-1.64,1.92-2.97,3.56-3.56c5.34-1.95,10.3,3,8.35,8.35C100.6,241.21,99.28,242.53,97.64,243.13z"/>
		<path class="st13" d="M128.24,224.92c-9.61-2.47-18.1,6.02-15.63,15.63c1.11,4.33,4.56,7.78,8.89,8.89
			c9.61,2.47,18.1-6.02,15.63-15.63C136.01,229.48,132.57,226.03,128.24,224.92z M127.26,243.13c-5.34,1.95-10.3-3-8.35-8.35
			c0.6-1.64,1.92-2.97,3.56-3.56c5.34-1.95,10.3,3,8.35,8.35C130.22,241.21,128.9,242.53,127.26,243.13z"/>
		<path class="st13" d="M284.83,224.92c-9.61-2.47-18.1,6.02-15.63,15.63c1.11,4.33,4.56,7.78,8.89,8.89
			c9.61,2.47,18.1-6.02,15.63-15.63C292.61,229.48,289.16,226.03,284.83,224.92z M283.85,243.13c-5.34,1.95-10.3-3-8.35-8.35
			c0.6-1.64,1.92-2.97,3.56-3.56c5.34-1.95,10.3,3,8.35,8.35C286.82,241.21,285.5,242.53,283.85,243.13z"/>
		<g>
			<rect x="257.08" y="224.46" class="st13" width="6.86" height="25.41"/>
			<path class="st13" d="M260.52,222.99c1.27,0,2.32-0.46,3.16-1.38c0.74-0.81,1.13-1.9,1.11-2.99c-0.02-1.17-0.42-2.15-1.21-2.95
				c-0.81-0.82-1.83-1.23-3.07-1.23c-1.24,0-2.27,0.41-3.08,1.23c-0.79,0.8-1.2,1.78-1.22,2.94c-0.02,1.1,0.38,2.19,1.13,3
				C258.19,222.54,259.25,222.99,260.52,222.99z"/>
		</g>
	</g>
</g>
</svg>
